<svg width="456" height="456" viewBox="0 0 456 456" fill="none" xmlns="http://www.w3.org/2000/svg">
<g clip-path="url(#clip0_13_2)">
<path d="M417.078 235.353C405.324 230.282 391.362 230.803 380.29 237.295C369.418 243.669 362.614 255.346 362.732 267.712C362.849 279.954 369.57 291.502 379.864 298.419C390.598 305.631 404.637 307.604 416.923 303.199C428.836 298.929 437.914 288.898 440.333 276.72C442.705 264.777 438.351 252.306 429.609 243.729C426.017 240.205 421.74 237.364 417.078 235.353V235.353Z" fill="white"/>
<path d="M82.0979 358.168C82.5745 355.447 83.051 352.727 83.5282 350.005C84.7136 343.24 85.899 336.475 87.0844 329.709C88.6112 320.995 90.138 312.28 91.6648 303.567C93.1663 294.999 94.667 286.431 96.1684 277.863C97.2764 271.538 98.3851 265.213 99.493 258.887C100.149 255.143 100.539 251.122 102.197 247.651C104.868 242.059 110.202 237.898 116.386 236.553C119.334 235.912 122.326 235.967 125.279 236.538C125.874 236.653 126.471 236.769 127.066 236.884C131.491 237.74 135.916 238.596 140.341 239.452C148.662 241.063 156.984 242.673 165.306 244.282C174.172 245.998 183.039 247.713 191.905 249.429C197.964 250.601 204.023 251.773 210.082 252.945C211.011 253.125 211.941 253.305 212.87 253.485C213.081 253.526 213.987 252.698 214.188 252.558C214.69 252.209 215.195 251.862 215.702 251.52C216.625 250.898 217.556 250.288 218.5 249.696C220.214 248.619 221.969 247.6 223.777 246.679C227.062 245.007 230.526 243.696 234.131 242.843C238.099 241.905 242.179 241.493 246.252 241.301C251.69 241.045 257.143 241.147 262.582 241.288C270.254 241.487 277.933 241.72 285.6 242.053C289.245 242.211 292.882 242.518 296.501 242.958C296.976 243.016 297.256 243.932 297.482 244.34C297.779 244.874 298.084 245.404 298.394 245.93C299.089 247.107 299.814 248.267 300.562 249.414C301.947 251.537 303.402 253.625 304.987 255.613C305.563 256.335 306.156 257.048 306.803 257.712C307.192 258.112 307.631 258.591 308.161 258.817C306.099 253.81 303.885 248.832 302.065 243.735C301.89 243.709 301.358 241.785 301.289 241.597C300.647 239.841 300.004 238.086 299.362 236.33C297.924 232.399 296.486 228.468 295.048 224.537C294.154 222.096 292.95 219.569 292.798 216.972C292.475 211.444 292.152 205.916 291.829 200.388C291.333 191.913 290.837 183.438 290.342 174.964C290.204 172.607 290.066 170.249 289.929 167.891C299.326 172.201 310.071 173.387 320.228 171.272C320.985 177.027 321.742 182.782 322.499 188.538C323.436 195.662 324.373 202.786 325.31 209.91C325.421 210.757 325.729 211.255 326.15 212.025C327.356 214.229 328.562 216.433 329.768 218.637C333.817 226.038 337.867 233.439 341.916 240.839C345.65 247.665 349.384 254.491 353.119 261.316C353.931 262.801 354.745 264.287 355.557 265.772C356.709 267.878 357.524 270.141 357.909 272.5C358.244 274.552 358.259 276.651 357.958 278.708C357.928 280.147 357.82 281.587 357.618 283.014C356.952 287.717 355.2 292.272 352.117 295.989C349.478 299.172 346.003 301.596 342.196 303.294C335.594 306.238 328.058 307.221 320.843 306.929C318.672 306.842 316.613 306.509 314.484 306.145C309.17 305.236 303.705 304.967 298.326 304.678C283.435 303.876 268.459 303.871 253.587 305.025C250.896 305.234 248.208 305.486 245.52 305.729C243.99 305.868 242.46 306.002 240.929 306.128C239.093 306.28 237.155 306.263 235.354 306.628C231.064 307.498 226.772 307.165 222.576 306.046C217.824 304.778 213.071 303.51 208.319 302.243C200.02 300.028 191.721 297.815 183.422 295.601C174.735 293.284 166.049 290.967 157.363 288.65C151.449 287.073 145.535 285.495 139.622 283.918C138.692 283.67 137.762 283.422 136.833 283.174C136.827 283.173 136.163 285.531 136.127 285.658C134.502 291.398 132.877 297.137 131.252 302.877C128.853 311.351 126.454 319.825 124.055 328.299C121.804 336.252 119.552 344.205 117.301 352.159C116.119 356.336 114.936 360.513 113.754 364.69C112.56 368.908 109.749 372.514 105.785 374.625C99.9724 377.721 92.6024 376.987 87.5589 372.802C83.2523 369.229 81.1469 363.596 82.0979 358.168V358.168Z" fill="white"/>
<path d="M140.954 332.402C140.954 338.584 144.9 344.303 150.785 346.644C152.84 347.462 155.009 347.784 157.217 347.784C159.277 347.784 161.338 347.784 163.397 347.784C167.591 347.784 171.784 347.784 175.977 347.784C181.936 347.784 187.896 347.784 193.855 347.784C201.213 347.784 208.571 347.784 215.929 347.784C224.319 347.784 232.708 347.784 241.098 347.784C250.153 347.784 259.207 347.784 268.261 347.784C277.612 347.784 286.964 347.784 296.316 347.784C305.598 347.784 314.88 347.784 324.162 347.784C333.006 347.784 341.852 347.784 350.696 347.784C358.737 347.784 366.778 347.784 374.82 347.784C381.689 347.784 388.559 347.784 395.429 347.784C400.76 347.784 406.092 347.784 411.423 347.784C414.849 347.784 418.275 347.784 421.701 347.784C423.366 347.784 425.076 347.868 426.736 347.709C433.032 347.106 438.489 342.735 440.313 336.845C442.167 330.857 440.014 324.215 434.977 320.337C432.125 318.14 428.604 317.021 424.979 317.021H423.195H414.453H399.73H380.128H356.748H330.691H303.06H274.954H247.477H221.729H198.811H179.826H165.874H158.057H156.794C151.467 317.021 146.408 319.682 143.502 324.027C141.841 326.51 140.954 329.441 140.954 332.402V332.402Z" fill="white"/>
<ellipse cx="306.764" cy="133.691" rx="39.3818" ry="41.4545" fill="#0D1B2A"/>
</g>
<ellipse cx="308.5" cy="124.5" rx="13.5" ry="14.5" fill="white"/>
<path d="M20.7625 159.636L2.90654 89.5564H17.0185L31.5145 150.516L27.7705 148.308H37.3705L33.1465 150.516L44.5705 92.2444H56.2825L42.0745 159.636H20.7625ZM62.6185 159.636L47.1625 92.2444H59.3545L72.5065 150.516L68.3785 148.308H77.7865L74.1385 150.516L86.9065 89.5564H100.251L84.3145 159.636H62.6185ZM132.711 161.46C128.103 161.46 124.039 160.724 120.519 159.252C116.999 157.78 114.023 155.796 111.591 153.3C109.159 150.74 107.303 147.86 106.023 144.66C104.807 141.46 104.199 138.132 104.199 134.676V132.66C104.199 129.076 104.839 125.684 106.119 122.484C107.463 119.22 109.351 116.34 111.783 113.844C114.279 111.284 117.287 109.3 120.807 107.892C124.327 106.42 128.295 105.684 132.711 105.684C137.127 105.684 141.095 106.42 144.615 107.892C148.135 109.3 151.111 111.284 153.543 113.844C156.039 116.34 157.927 119.22 159.207 122.484C160.487 125.684 161.127 129.076 161.127 132.66V134.676C161.127 138.132 160.487 141.46 159.207 144.66C157.991 147.86 156.167 150.74 153.735 153.3C151.303 155.796 148.327 157.78 144.807 159.252C141.287 160.724 137.255 161.46 132.711 161.46ZM132.711 150.036C135.975 150.036 138.727 149.332 140.967 147.924C143.207 146.452 144.903 144.5 146.055 142.068C147.207 139.572 147.783 136.756 147.783 133.62C147.783 130.42 147.175 127.604 145.959 125.172C144.807 122.676 143.079 120.724 140.775 119.316C138.535 117.844 135.847 117.108 132.711 117.108C129.575 117.108 126.855 117.844 124.551 119.316C122.311 120.724 120.583 122.676 119.367 125.172C118.151 127.604 117.543 130.42 117.543 133.62C117.543 136.756 118.119 139.572 119.271 142.068C120.487 144.5 122.215 146.452 124.455 147.924C126.695 149.332 129.447 150.036 132.711 150.036ZM172.812 159.636V107.508H183.372V129.588H183.084C183.084 122.1 184.684 116.436 187.884 112.596C191.084 108.756 195.788 106.836 201.996 106.836H203.916V118.452H200.268C195.788 118.452 192.3 119.668 189.804 122.1C187.372 124.468 186.156 127.924 186.156 132.468V159.636H172.812ZM249.323 159.636L231.851 135.252H224.075L246.251 107.508H260.171L239.723 133.14L240.011 126.42L264.395 159.636H249.323ZM212.843 159.636V89.5564H226.187V159.636H212.843ZM308.709 162.106C302.469 162.106 296.965 161.11 292.199 159.116C287.432 157.123 283.402 154.436 280.109 151.056C276.815 147.59 274.302 143.69 272.569 139.356C270.922 135.023 270.099 130.516 270.099 125.836V123.106C270.099 118.253 270.965 113.66 272.699 109.326C274.519 104.906 277.075 101.006 280.369 97.6263C283.749 94.1597 287.822 91.473 292.589 89.5663C297.355 87.573 302.729 86.5763 308.709 86.5763C314.689 86.5763 320.062 87.573 324.829 89.5663C329.595 91.473 333.625 94.1597 336.919 97.6263C340.299 101.006 342.855 104.906 344.589 109.326C346.322 113.66 347.189 118.253 347.189 123.106V125.836C347.189 130.516 346.322 135.023 344.589 139.356C342.942 143.69 340.472 147.59 337.179 151.056C333.885 154.436 329.855 157.123 325.089 159.116C320.322 161.11 314.862 162.106 308.709 162.106ZM308.709 146.636C313.129 146.636 316.855 145.683 319.889 143.776C322.922 141.783 325.219 139.14 326.779 135.846C328.339 132.466 329.119 128.653 329.119 124.406C329.119 120.073 328.295 116.26 326.649 112.966C325.089 109.586 322.749 106.943 319.629 105.036C316.595 103.043 312.955 102.046 308.709 102.046C304.462 102.046 300.779 103.043 297.659 105.036C294.625 106.943 292.285 109.586 290.639 112.966C288.992 116.26 288.169 120.073 288.169 124.406C288.169 128.653 288.949 132.466 290.509 135.846C292.155 139.14 294.495 141.783 297.529 143.776C300.562 145.683 304.289 146.636 308.709 146.636ZM378.085 161.268C372.069 161.268 367.397 159.284 364.069 155.316C360.805 151.348 359.173 145.46 359.173 137.652V107.412H372.517V138.804C372.517 142.004 373.413 144.564 375.205 146.484C376.997 148.34 379.429 149.268 382.501 149.268C385.573 149.268 388.069 148.276 389.989 146.292C391.973 144.308 392.965 141.62 392.965 138.228V107.412H406.309V159.636H395.749V137.46H396.805C396.805 142.708 396.133 147.092 394.789 150.612C393.445 154.132 391.429 156.788 388.741 158.58C386.053 160.372 382.693 161.268 378.661 161.268H378.085ZM444.294 160.308C439.494 160.308 435.526 159.7 432.39 158.484C429.318 157.204 427.014 155.092 425.478 152.148C423.942 149.14 423.174 145.108 423.174 140.052L423.27 92.8203H435.75L435.654 140.916C435.654 143.476 436.326 145.46 437.67 146.868C439.078 148.212 441.062 148.884 443.622 148.884H451.782V160.308H444.294ZM414.918 117.3V107.508H451.782V117.3H414.918Z" fill="white"/>
<defs>
<clipPath id="clip0_13_2">
<rect width="359.1" height="349.255" fill="white" transform="matrix(-1 0 0 1 440.973 59.5909)"/>
</clipPath>
</defs>
</svg>
