<svg id="Capa_1" enable-background="new 0 0 512 512" height="512" Fill="#0D1B2A" viewBox="0 0 512 512" width="512" xmlns="http://www.w3.org/2000/svg"><g><path d="m510.181 425.02-61.538-247.183c-6.71-26.939-30.769-45.749-58.528-45.749h-74.158c37.037-49.2 1.749-119.997-59.958-119.997-61.808 0-96.918 70.899-59.958 119.997h-73.468c-27.689 0-51.739 18.75-58.499 45.589l-62.219 247.183c-9.585 38.089 19.181 75.048 58.489 75.048h391.309c39.212 0 68.013-36.823 58.528-74.888zm-254.183-382.929c24.809 0 44.999 20.189 44.999 44.999s-20.189 44.999-44.999 44.999-44.999-20.189-44.999-44.999 20.189-44.999 44.999-44.999zm-30.759 341.32c-5.704 5.917-15.202 6.161-21.209.38l-39.949-38.549v27.749c0 8.28-6.72 15-15 15-8.29 0-15-6.72-15-15v-113.986c0-8.29 6.71-15 15-15 8.28 0 15 6.71 15 15v23.639l36.169-33.249c6.1-5.6 15.59-5.2 21.189.89 5.61 6.1 5.21 15.59-.89 21.199l-45.949 42.229 50.259 48.489c5.96 5.75 6.13 15.24.38 21.209zm88.477 4.58c-39.699 0-71.998-32.299-71.998-71.998 0-57.694 64.777-91.78 112.257-59.688 6.87 4.64 8.67 13.96 4.04 20.829-4.64 6.86-13.97 8.67-20.83 4.03-27.629-18.671-65.468 1.135-65.468 34.829 0 43.24 62.332 61.197 74.338 15h-17.24c-8.28 0-15-6.71-15-15 0-8.28 6.72-15 15-15h34.099c8.29 0 15 6.72 15 15 0 42.389-26.399 71.998-64.198 71.998z"/></g></svg>