<svg id="svg6331" height="512" viewBox="0 0 32 32" width="512" xmlns="http://www.w3.org/2000/svg" xmlns:svg="http://www.w3.org/2000/svg"><g id="layer1"><path id="path1704" d="m23.7417 6.00107c-.534.0241-.9546.46354-.9552.99794v2.99971h-14.7862c-2.1988 0-4.0003 1.80113-4.0003 3.99961v.4277c-.019 1.35218 2.0193 1.35218 2.0002 0v-.4277c0-1.12518.8748-1.9998 2.0001-1.9998h14.7862v2.99971c.0001.8294.9518 1.29819 1.6095.79289l5.2133-3.99961c.5208-.40033.5208-1.18545 0-1.58578l-5.2133-3.99961c-.1871-.14332-.4188-.21594-.6543-.20506z" font-variant-ligatures="normal" font-variant-position="normal" font-variant-caps="normal" font-variant-numeric="normal" font-variant-alternates="normal" font-feature-settings="normal" text-indent="0" text-align="start" text-decoration-line="none" text-decoration-style="solid" text-decoration-color="rgb(0,0,0)" text-transform="none" text-orientation="mixed" white-space="normal" shape-padding="0" isolation="auto" mix-blend-mode="normal" solid-color="rgb(0,0,0)" solid-opacity="1" vector-effect="none" paint-order="normal"/><path id="path1700" d="m8.1837 16.00043c-.2103.006-.4133.0787-.5801.20699l-5.2129 3.99908c-.5209.40024-.5209 1.18533 0 1.58557l5.2129 3.99909c.6577.50521 1.6093.0365 1.6094-.79279v-2.99932h14.7871c2.1987 0 4-1.80087 4-3.99908v-.42568c.01-.56368-.4519-1.02229-1.0157-1.01344-.5515.009-.9919.46206-.9843 1.01344v.42568c0 1.12504-.8747 1.99954-2 1.99954h-14.7871v-2.99931c.0002-.56378-.4656-1.01623-1.0293-.99977z" font-variant-ligatures="normal" font-variant-position="normal" font-variant-caps="normal" font-variant-numeric="normal" font-variant-alternates="normal" font-feature-settings="normal" text-indent="0" text-align="start" text-decoration-line="none" text-decoration-style="solid" text-decoration-color="rgb(0,0,0)" text-transform="none" text-orientation="mixed" white-space="normal" shape-padding="0" isolation="auto" mix-blend-mode="normal" solid-color="rgb(0,0,0)" solid-opacity="1" vector-effect="none" paint-order="normal"/></g></svg>