<svg width="456" height="456" viewBox="0 0 456 456" fill="none" xmlns="http://www.w3.org/2000/svg">
<g clip-path="url(#clip0_11_2)">
<g clip-path="url(#clip1_11_2)">
<path d="M228.008 0C102.285 0 0.00793457 102.277 0.00793457 228C0.00793457 353.715 102.293 456 228.016 456C353.715 456 456 353.723 456 228C456 102.277 353.715 0 228.008 0ZM228.008 432.149C115.431 432.149 23.8427 340.569 23.8427 227.992C23.8427 115.423 115.431 23.8348 228.008 23.8348C340.569 23.8348 432.149 115.415 432.149 227.992C432.149 340.569 340.577 432.149 228.008 432.149Z" fill="#FFFFFF"/>
<path d="M361.551 126.072H332.924C328.529 126.072 324.102 129.522 323.013 133.774L293.385 249.713C292.296 253.965 291.294 257.414 291.151 257.414C290.992 257.414 289.8 254.012 288.481 249.824L251.835 133.654C250.515 129.466 245.89 126.08 241.495 126.08H216.508C212.113 126.08 207.456 129.466 206.096 133.638L169.315 246.47C167.956 250.643 166.732 254.028 166.573 254.028C166.422 254.028 165.429 250.563 164.38 246.311L136.364 133.789C135.307 129.522 130.897 126.072 126.502 126.072H94.4807C90.0857 126.072 87.5425 129.49 88.7903 133.694L143.462 317.99C144.709 322.187 149.271 325.612 153.666 325.612H175.538C179.933 325.612 184.567 322.203 185.902 318.038L225.051 195.073C226.387 190.885 227.587 187.499 227.746 187.499C227.897 187.499 229.105 190.885 230.44 195.073L269.574 318.038C270.909 322.203 275.534 325.612 279.937 325.612H303.224C307.627 325.612 312.173 322.187 313.397 317.967L367.273 133.678C368.497 129.49 365.954 126.072 361.551 126.072Z" fill="#FFFFFF"/>
</g>
</g>
<defs>
<clipPath id="clip0_11_2">
<rect width="456" height="456" fill="white"/>
</clipPath>
<clipPath id="clip1_11_2">
<rect width="456" height="456" fill="white"/>
</clipPath>
</defs>
</svg>
